# xmcd
#
# Track frame offsets: 
#        150
#        16178
#        20193
#        35889
#        105976
#        125535
#        167328
#        181938
#        188702
#        198281
#        204386
#        215031
#        227004
#        245676
#        266277
#
# Disc length: 3681 seconds
#
# Revision: 0
# Processed by: cddbd v1.5.2PL0 Copyright (c) Steve Scherf et al.
# Submitted via: ExactAudioCopy v0.95b4
#
DISCID=ca0e5f0f
DTITLE=The Beatles  - AB  Road - Complete Purple Chick Set v1.1 Jan.28
DTITLE=Various Artist - D5  FLAC
DYEAR=1900
DGENRE=
TTITLE0=Dialogue
TTITLE1=Something 28.68
TTITLE2=Something 28.69
TTITLE3=Something 28.70
TTITLE4=Something 28.71
TTITLE5=Something 28.72
TTITLE6=Get Back 28.73
TTITLE7=Get Back 28.74
TTITLE8=Get Back 28.75
TTITLE9=Get Back 28.76
TTITLE10=Bo Diddley 28.77
TTITLE11=Two Of Us 28.78
TTITLE12=Two Of Us 28.79
TTITLE13=Two Of Us 28.80
TTITLE14=Two Of Us 28.81
EXTD=
EXTT0=
EXTT1=
EXTT2=
EXTT3=
EXTT4=
EXTT5=
EXTT6=
EXTT7=
EXTT8=
EXTT9=
EXTT10=
EXTT11=
EXTT12=
EXTT13=
EXTT14=
PLAYORDER=
